HIERARCHY
ROOT Hips
{
	OFFSET 0.00000 0.00000 0.00000
	CHANNELS 6 Xposition Yposition Zposition Zrotation Yrotation Xrotation 
	JOINT LHipJoint
	{
		OFFSET 0 0 0
		CHANNELS 3 Zrotation Yrotation Xrotation
		JOINT LeftUpLeg
		{
			OFFSET 1.26600 -1.82114 0.91038
			CHANNELS 3 Zrotation Yrotation Xrotation
			JOINT LeftLeg
			{
				OFFSET 2.50076 -6.87080 0.00000
				CHANNELS 3 Zrotation Yrotation Xrotation
				JOINT LeftFoot
				{
					OFFSET 2.57364 -7.07102 0.00000
					CHANNELS 3 Zrotation Yrotation Xrotation
					JOINT LeftToeBase
					{
						OFFSET 0.13572 -0.37290 1.97004
						CHANNELS 3 Zrotation Yrotation Xrotation
						End Site
						{
							OFFSET 0.00000 -0.00000 1.01383
						}
					}
				}
			}
		}
	}
	JOINT RHipJoint
	{
		OFFSET 0 0 0
		CHANNELS 3 Zrotation Yrotation Xrotation
		JOINT RightUpLeg
		{
			OFFSET -1.20803 -1.82114 0.91038
			CHANNELS 3 Zrotation Yrotation Xrotation
			JOINT RightLeg
			{
				OFFSET -2.54916 -7.00377 0.00000
				CHANNELS 3 Zrotation Yrotation Xrotation
				JOINT RightFoot
				{
					OFFSET -2.56374 -7.04382 0.00000
					CHANNELS 3 Zrotation Yrotation Xrotation
					JOINT RightToeBase
					{
						OFFSET -0.23520 -0.64621 2.09921
						CHANNELS 3 Zrotation Yrotation Xrotation
						End Site
						{
							OFFSET -0.00000 -0.00000 1.10065
						}
					}
				}
			}
		}
	}
	JOINT LowerBack
	{
		OFFSET 0 0 0
		CHANNELS 3 Zrotation Yrotation Xrotation
		JOINT Spine
		{
			OFFSET 0.05492 2.10797 -0.12074
			CHANNELS 3 Zrotation Yrotation Xrotation
			JOINT Spine1
			{
				OFFSET 0.04577 2.11592 -0.04483
				CHANNELS 3 Zrotation Yrotation Xrotation
				JOINT Neck
				{
					OFFSET 0 0 0
					CHANNELS 3 Zrotation Yrotation Xrotation
					JOINT Neck1
					{
						OFFSET -0.10759 1.80167 0.15770
						CHANNELS 3 Zrotation Yrotation Xrotation
						JOINT Head
						{
							OFFSET 0.09237 1.77509 -0.40848
							CHANNELS 3 Zrotation Yrotation Xrotation
							End Site
							{
								OFFSET 0.03805 1.84093 -0.15754
							}
						}
					}
				}
				JOINT LeftShoulder
				{
					OFFSET 0 0 0
					CHANNELS 3 Zrotation Yrotation Xrotation
					JOINT LeftArm
					{
						OFFSET 3.42372 1.09575 -0.28209
						CHANNELS 3 Zrotation Yrotation Xrotation
						JOINT LeftForeArm
						{
							OFFSET 4.95681 -0.00000 0.00000
							CHANNELS 3 Zrotation Yrotation Xrotation
							JOINT LeftHand
							{
								OFFSET 3.40915 -0.00000 0.00000
								CHANNELS 3 Zrotation Yrotation Xrotation
								JOINT LeftFingerBase
								{
									OFFSET 0 0 0
									CHANNELS 3 Zrotation Yrotation Xrotation
									JOINT LeftHandIndex1
									{
										OFFSET 0.61640 -0.00000 0.00000
										CHANNELS 3 Zrotation Yrotation Xrotation
										End Site
										{
											OFFSET 0.49696 -0.00000 0.00000
										}
									}
								}
								JOINT LThumb
								{
									OFFSET 0 0 0
									CHANNELS 3 Zrotation Yrotation Xrotation
									End Site
									{
										OFFSET 0.50455 -0.00000 0.50455
									}
								}
							}
						}
					}
				}
				JOINT RightShoulder
				{
					OFFSET 0 0 0
					CHANNELS 3 Zrotation Yrotation Xrotation
					JOINT RightArm
					{
						OFFSET -3.24731 1.15872 -0.32221
						CHANNELS 3 Zrotation Yrotation Xrotation
						JOINT RightForeArm
						{
							OFFSET -5.35200 -0.00000 0.00000
							CHANNELS 3 Zrotation Yrotation Xrotation
							JOINT RightHand
							{
								OFFSET -3.43721 -0.00000 -0.00000
								CHANNELS 3 Zrotation Yrotation Xrotation
								JOINT RightFingerBase
								{
									OFFSET 0 0 0
									CHANNELS 3 Zrotation Yrotation Xrotation
									JOINT RightHandIndex1
									{
										OFFSET -0.72009 -0.00000 0.00000
										CHANNELS 3 Zrotation Yrotation Xrotation
										End Site
										{
											OFFSET -0.58056 -0.00000 0.00000
										}
									}
								}
								JOINT RThumb
								{
									OFFSET 0 0 0
									CHANNELS 3 Zrotation Yrotation Xrotation
									End Site
									{
										OFFSET -0.58942 -0.00000 0.58942
									}
								}
							}
						}
					}
				}
			}
		}
	}
}
MOTION
Frames: 8
Frame Time: .0083333
-10.9996 17.0602 -10.5758 0 0 0 0 0 0 -21 0 0 0 0 0 0 0 0 0 0 0 0 0 0 21 0 0 0 0 0 0 0 0 0 0 0 0 0 0 0 0 0 0 0 0 0 0 -16 0 0 21 0 0 11 0 0 0 -8 0 0 0 0 0 0 0 0 0 0 0 0 0 0 0 0 0 0 0 0 8 0 0 0 0 0 0 0 0 0 0 0 0 0 0 0 0 0
-10.9996 17.0602 -10.5758 -76.1529 77.1320 -77.9259 0.0000 0.0000 0.0000 -1.3561 -8.0475 -29.0466 10.0243 17.4235 59.5694 0.1676 -8.9278 -9.0075 0.0555 1.5208 4.1832 0.0000 0.0000 0.0000 35.0707 -6.8152 3.9898 -1.0063 -6.3830 17.8998 -1.2652 3.3247 -20.4260 -0.3682 -3.8979 10.7896 11.5696 1.9394 7.3969 4.3048 3.5812 4.2288 -2.1882 2.0641 0.7079 -9.1774 -2.0205 -15.1268 0.9748 1.1155 36.3022 2.3500 -0.1812 15.2652 -0.0000 0.0000 0.0000 -96.4043 9.2086 -5.6098 10.2937 -17.1976 -1.5607 -0.0000 -0.0000 7.7792 11.8366 21.8611 4.4622 -7.1250 0.0000 -0.0000 -17.1339 51.4616 -2.7959 -0.0000 0.0000 0.0000 84.7036 -1.4773 15.3089 -12.6114 20.7152 -2.3140 0.0000 -0.0000 -5.2698 -19.2687 11.4942 -3.9848 7.1250 -0.0000 -0.0000 5.5150 -17.8568 3.5749
-10.9558 17.0808 -10.5478 -76.3213 78.3035 -77.6347 0.0000 0.0000 0.0000 -2.6191 -8.5828 -29.5852 9.5891 17.1722 58.1059 0.1897 -8.4373 -9.1156 0.0767 1.7866 4.9163 0.0000 0.0000 0.0000 34.0445 -6.4454 3.6031 -1.0355 -6.4723 18.1611 -1.2649 3.0972 -20.4638 -0.4008 -4.0644 11.2579 10.0825 2.0222 7.0660 4.0166 3.5365 4.0047 -1.6721 1.9921 0.5660 -8.7133 -1.9907 -14.8368 0.6081 1.1205 36.2252 2.1117 -0.1579 15.1619 0.0000 0.0000 0.0000 -96.2553 9.4674 -6.0113 10.2102 -17.0677 -1.5361 -0.0000 -0.0000 8.0369 11.8016 21.7601 4.4292 -7.1250 0.0000 -0.0000 -17.1211 51.3586 -2.7496 0.0000 0.0000 0.0000 84.8361 -1.6686 14.7729 -12.4880 20.5324 -2.2705 0.0000 -0.0000 -4.6913 -19.1542 11.6746 -4.0205 7.1250 -0.0000 -0.0000 5.5983 -17.6769 3.6516
-10.9149 17.0791 -10.5472 -77.6066 78.1637 -78.7566 0.0000 0.0000 0.0000 -2.4403 -8.6882 -30.0745 9.2182 16.9461 56.8418 0.2005 -8.2249 -9.1862 0.0733 1.7468 4.8065 0.0000 0.0000 0.0000 34.2852 -6.5298 3.5561 -1.0259 -6.4432 18.0758 -1.2530 3.1782 -20.3488 -0.4488 -4.2979 11.9163 10.4255 1.9125 6.9883 3.9155 3.3986 4.0022 -1.9527 1.9321 0.6221 -7.3738 -1.8343 -14.4997 -0.2048 1.1597 35.8727 1.5342 -0.0617 14.9116 0.0000 -0.0000 0.0000 -95.9848 9.4315 -6.2050 10.1333 -16.9478 -1.5136 -0.0000 -0.0000 7.9107 12.0068 21.9309 4.5417 -7.1250 0.0000 -0.0000 -17.0026 51.5570 -2.8139 0.0000 -0.0000 0.0000 85.1261 -1.2637 13.6491 -12.1417 20.0168 -2.1505 0.0000 -0.0000 -3.4156 -18.8958 12.0083 -4.0735 7.1250 -0.0000 -0.0000 5.7846 -17.3488 3.8161
-10.8727 17.0793 -10.5409 -78.3272 78.5603 -79.3323 0.0000 0.0000 0.0000 -2.9308 -8.7138 -30.5441 8.8336 16.6994 55.5127 0.2215 -8.0627 -9.4305 0.0210 0.9349 2.5696 0.0000 0.0000 0.0000 33.9544 -6.5064 3.6549 -1.0027 -6.3720 17.8678 -1.2703 2.9718 -20.5329 -0.4201 -4.1600 11.5274 9.9920 1.8559 6.9094 3.8724 3.2828 3.9866 -1.7532 1.8643 0.6113 -7.5750 -1.8272 -14.6309 -0.0880 1.2138 35.9833 1.6297 -0.0533 14.9926 0.0000 0.0000 0.0000 -96.0354 9.4202 -6.6585 10.0418 -16.8050 -1.4870 -0.0000 -0.0000 8.2535 12.1821 22.0820 4.6398 -7.1250 0.0000 -0.0000 -16.9036 51.7317 -2.8705 0.0000 0.0000 0.0000 85.0159 -1.0813 13.2857 -11.9559 19.7385 -2.0874 0.0000 -0.0000 -3.2182 -19.1597 12.0186 -4.1381 7.1250 -0.0000 -0.0000 5.6008 -17.3162 3.6977
-10.8278 17.0787 -10.5363 -79.6742 78.7163 -80.6184 0.0000 0.0000 0.0000 -3.0933 -8.9505 -30.8355 8.4602 16.4475 54.2038 0.2330 -8.1830 -9.6399 0.0024 0.3175 0.8725 0.0000 0.0000 0.0000 33.8799 -6.6201 3.9073 -0.9630 -6.2482 17.5063 -1.2903 2.7005 -20.7542 -0.3625 -3.8679 10.7053 9.8192 1.7886 6.9716 3.9349 3.1981 3.9223 -1.5957 1.8119 0.4857 -7.6790 -1.8493 -14.4760 -0.1034 1.2026 35.9093 1.6378 -0.0696 14.9236 0.0000 -0.0000 0.0000 -96.0340 9.4798 -6.9574 9.8831 -16.5564 -1.4414 -0.0000 -0.0000 8.9465 12.2380 21.8345 4.6121 -7.1250 0.0000 -0.0000 -16.7366 51.5022 -2.7448 0.0000 -0.0000 0.0000 84.5908 -1.4434 14.7429 -12.1397 20.0137 -2.1498 0.0000 -0.0000 -4.9198 -19.8648 11.4085 -4.0878 7.1250 -0.0000 -0.0000 5.0955 -17.8987 3.2959
-10.7795 17.0811 -10.5343 -81.5651 78.5103 -82.5597 0.0000 0.0000 0.0000 -2.8056 -9.2011 -30.9634 8.0748 16.1740 52.8316 0.2088 -8.4920 -9.4151 0.0220 0.9583 2.6340 0.0000 0.0000 0.0000 34.0949 -7.1182 4.1117 -0.9389 -6.1718 17.2838 -1.3423 2.7024 -21.1831 -0.2769 -3.3847 9.3516 10.2755 1.7763 7.1158 3.9309 3.2345 3.9188 -1.8568 1.8374 0.4347 -9.3300 -2.1446 -15.1286 1.3529 0.8678 36.5257 2.5027 -0.2563 15.3855 0.0000 0.0000 0.0000 -95.6438 9.4356 -6.8649 9.6854 -16.2460 -1.3856 -0.0000 -0.0000 9.7325 12.1878 21.5420 4.5344 -7.1250 0.0000 -0.0000 -16.6530 51.2114 -2.6095 0.0000 0.0000 0.0000 84.4366 -1.7736 15.3173 -12.3369 20.3080 -2.2178 0.0000 -0.0000 -5.8312 -19.8170 11.0621 -3.9553 7.1250 -0.0000 -0.0000 5.1223 -18.2674 3.2717
-10.7336 17.0836 -10.5329 -82.8679 78.9270 -83.7922 0.0000 0.0000 0.0000 -3.3064 -9.4393 -31.1601 7.6619 15.8649 51.3356 0.1895 -8.4596 -9.1213 0.0211 0.9374 2.5766 0.0000 0.0000 0.0000 33.6149 -7.5906 4.1730 -0.9150 -6.0950 17.0605 -1.3650 2.8133 -21.3452 -0.2486 -3.2082 8.8588 10.0736 1.8586 7.1448 3.7766 3.3278 3.9071 -1.9135 1.8781 0.4129 -9.6035 -2.2999 -15.1330 1.5130 0.6585 36.4539 2.5810 -0.3588 15.3682 0.0000 -0.0000 0.0000 -95.4135 9.2563 -7.5963 9.5365 -16.0113 -1.3443 -0.0000 -0.0000 11.1365 12.1597 21.4207 4.4995 -7.1250 0.0000 -0.0000 -16.6260 51.0897 -2.5544 0.0000 -0.0000 0.0000 84.4648 -1.7839 14.3726 -12.2871 20.2338 -2.2006 0.0000 -0.0000 -5.3036 -19.4976 11.4396 -4.0170 7.1250 -0.0000 -0.0000 5.3536 -17.8959 3.4647
